<?xml version="1.0" encoding="utf-8"?>
<!-- Generator: Adobe Illustrator 22.1.0, SVG Export Plug-In . SVG Version: 6.00 Build 0)  -->
<svg version="1.1" id="Ebene_1" xmlns="http://www.w3.org/2000/svg" xmlns:xlink="http://www.w3.org/1999/xlink" x="0px" y="0px"
	 viewBox="0 0 1920 1771" style="enable-background:new 0 0 1920 1771;" xml:space="preserve">
<style type="text/css">
	.st0{fill:#FFFFFF;}
	.st1{fill:#010101;}
	.st2{fill:none;stroke:#010101;stroke-width:5;stroke-miterlimit:10;}
	.st3{fill:#FFFFFF;stroke:#000000;stroke-width:3;stroke-miterlimit:10;}
	.st4{fill:#FFFFFF;stroke:#000000;stroke-miterlimit:10;}
	.st5{fill:none;stroke:#000000;stroke-width:5;stroke-linecap:round;stroke-miterlimit:10;}
	.st6{fill:none;stroke:#FFFFFF;stroke-width:2;stroke-miterlimit:10;}
	.st7{fill:#020203;}
	.st8{fill:none;stroke:#000000;stroke-width:3;stroke-miterlimit:10;}
	.st9{fill:none;stroke:#FFFFFF;stroke-miterlimit:10;}
	.st10{fill:none;stroke:#000000;stroke-linecap:round;stroke-miterlimit:10;}
	.st11{fill:none;}
	.st12{font-family:'MyriadPro-Regular';}
	.st13{font-size:28px;}
	.st14{stroke:#000000;stroke-width:3;stroke-miterlimit:10;}
	.st15{fill:#FFFF00;}
	.st16{fill:#00FF00;}
	.st17{fill:#FF0000;}
	.st18{fill:none;stroke:#000000;stroke-width:5;stroke-miterlimit:10;}
	.st19{fill:#FFFFFF;stroke:#000000;stroke-width:2;stroke-miterlimit:10;}
	.st20{fill:none;stroke:#000000;stroke-width:7;stroke-linecap:round;stroke-miterlimit:10;}
	.st21{font-size:37px;}
	.st22{fill:none;stroke:#00FF00;stroke-width:7;stroke-linecap:round;stroke-miterlimit:10;}
	.st23{fill:none;stroke:#FF0000;stroke-width:7;stroke-linecap:round;stroke-miterlimit:10;}
</style>
<g>
	<rect x="50.5" y="52.5" class="st0" width="459" height="617"/>
	<path class="st1" d="M507,55v612H53V55H507 M512,50H48v622h464V50L512,50z"/>
</g>
<line class="st2" x1="51" y1="579.1" x2="509" y2="579.1"/>
<line class="st2" x1="280" y1="669" x2="280" y2="579.1"/>
<g>
	<path class="st3" d="M386.8,636.2v-13.6c0,0-0.5-7.7,7.7-7.7"/>
	<path class="st3" d="M386.8,634.9v13.6c0,0-0.5,7.7,7.7,7.7"/>
	<path class="st3" d="M402.2,636.2v-13.6c0,0,0.5-7.7-7.7-7.7"/>
	<path class="st3" d="M402.2,634.9v13.6c0,0,0.5,7.7-7.7,7.7"/>
	<circle class="st3" cx="394.5" cy="602.7" r="7.7"/>
</g>
<g>
	<g>
		<path d="M192.2,599.8C192.2,599.8,192.2,599.8,192.2,599.8L192.2,599.8c-1.3-1.3-3-2-4.7-2s-3.5,0.7-4.7,2c-2.6,2.6-2.6,6.9,0,9.5
			c0,0,0,0,0,0c3.8,3.8,5.9,8.8,5.9,14.2s-2.1,10.4-5.9,14.2c-3.8,3.8-8.8,5.9-14.2,5.9s-10.4-2.1-14.2-5.9
			c-3.8-3.8-5.9-8.8-5.9-14.2c0-5.4,2.1-10.4,5.9-14.2c2.6-2.6,2.6-6.9,0-9.5c-1.3-1.3-3-2-4.7-2c-1.8,0-3.5,0.7-4.7,2v0l0,0
			c-13.1,13.1-13.1,34.3,0,47.4c6.5,6.5,15.1,9.8,23.7,9.8c8.6,0,17.1-3.3,23.7-9.8C205.3,634.1,205.3,612.9,192.2,599.8z M189,644
			c-5.5,5.5-12.8,8.5-20.5,8.5c-7.8,0-15-3-20.5-8.5c-11.3-11.3-11.3-29.7,0-41.1h0c0,0,0,0,0,0c0.4-0.4,1-0.7,1.6-0.7
			c0.6,0,1.1,0.2,1.6,0.7c0.9,0.9,0.9,2.3,0,3.2c0,0,0,0,0,0c-9.6,9.6-9.6,25.1,0,34.7c4.8,4.8,11.1,7.2,17.4,7.2
			c6.3,0,12.6-2.4,17.4-7.2c9.6-9.6,9.6-25.1,0-34.7c0,0,0,0,0,0l0,0c-0.9-0.9-0.9-2.3,0-3.2c0.4-0.4,1-0.7,1.6-0.7
			c0.6,0,1.1,0.2,1.6,0.7l0,0l0,0C200.3,614.3,200.3,632.7,189,644z M168.5,630.2c3.7,0,6.7-3,6.7-6.7v-26.8c0-3.7-3-6.7-6.7-6.7
			s-6.7,3-6.7,6.7v26.8C161.8,627.2,164.8,630.2,168.5,630.2z M166.3,596.7c0-1.2,1-2.2,2.2-2.2s2.2,1,2.2,2.2v26.8
			c0,1.2-1,2.2-2.2,2.2s-2.2-1-2.2-2.2V596.7z"/>
	</g>
</g>
<path class="st4" d="M64.5,134.1V88.4c0-0.2-0.2-0.4-0.4-0.4h-0.7c-0.2,0-0.4,0.2-0.4,0.4v46.1v1.1c0,0.2,0.2,0.4,0.4,0.4h1.1h74.1
	c0.2,0,0.4-0.2,0.4-0.4v-0.7c0-0.2-0.2-0.4-0.4-0.4H64.9C64.7,134.5,64.5,134.3,64.5,134.1z"/>
<line class="st5" x1="110" y1="112" x2="122.6" y2="100.5"/>
<polyline class="st5" points="69.7,128.2 86.8,114.7 94,117.6 103.6,109.1 110,112 "/>
<polyline class="st6" points="122.6,100.5 110,112 103.6,109.1 94,117.6 86.8,114.7 69.7,128.2 "/>
<path class="st4" d="M65.5,479.5v-45.1c0-0.2-0.2-0.4-0.4-0.4h-0.7c-0.2,0-0.4,0.2-0.4,0.4v45.5v1.1c0,0.2,0.2,0.4,0.4,0.4h1.1h73.1
	c0.2,0,0.4-0.2,0.4-0.4v-0.7c0-0.2-0.2-0.4-0.4-0.4H65.9C65.7,479.9,65.5,479.7,65.5,479.5z"/>
<line class="st5" x1="110.4" y1="457.7" x2="122.9" y2="446.3"/>
<polyline class="st5" points="70.6,473.7 87.5,460.3 94.6,463.2 104.1,454.8 110.4,457.7 "/>
<polyline class="st6" points="122.9,446.3 110.4,457.7 104.1,454.8 94.6,463.2 87.5,460.3 70.6,473.7 "/>
<g>
	<g>
		<path class="st7" d="M127.2,440.5c-1,0-1.8,0.8-1.8,1.8v0.2c0,0.1,0.1,0.2,0.2,0.2h0.7c0.1,0,0.2-0.1,0.2-0.2v-0.2
			c0-0.4,0.3-0.7,0.7-0.7c0.4,0,0.7,0.3,0.7,0.7c0,0.4-0.3,0.7-0.7,0.7c-0.4,0-0.7,0.3-0.7,0.7v0.9c0,0.1,0.1,0.2,0.2,0.2h0.7
			c0.1,0,0.2-0.1,0.2-0.2v-0.6c0.9-0.2,1.5-0.9,1.5-1.8C129,441.3,128.2,440.5,127.2,440.5z M127.3,443.8c-0.1,0-0.1,0.1-0.1,0.2
			v0.6h-0.4v-0.7c0-0.2,0.2-0.4,0.4-0.4c0.6,0,1.1-0.5,1.1-1.1c0-0.6-0.5-1.1-1.1-1.1c-0.6,0-1.1,0.5-1.1,1.1h-0.4
			c0-0.8,0.7-1.5,1.5-1.5c0.8,0,1.5,0.7,1.5,1.5C128.6,443.1,128,443.7,127.3,443.8z"/>
		<path class="st7" d="M127,445.3c-0.3,0-0.6,0.2-0.6,0.6c0,0.3,0.2,0.6,0.6,0.6c0.3,0,0.6-0.2,0.6-0.6
			C127.5,445.5,127.3,445.3,127,445.3z M127,446c-0.1,0-0.2-0.1-0.2-0.2s0.1-0.2,0.2-0.2c0.1,0,0.2,0.1,0.2,0.2S127.1,446,127,446z"
			/>
	</g>
	<circle class="st8" cx="127.1" cy="443.4" r="4.4"/>
	<circle class="st9" cx="127.1" cy="443.4" r="4.4"/>
	<path class="st10" d="M134.2,450.6l-3.7-3.7c-0.1-0.1-0.1-0.1,0-0.2l0.2-0.2c0.1-0.1,0.1-0.1,0.2,0l3.7,3.7c0.1,0.1,0.1,0.1,0,0.2
		l-0.2,0.2C134.3,450.6,134.2,450.6,134.2,450.6z"/>
</g>
<rect x="155" y="84.7" class="st11" width="345.7" height="98.7"/>
<text transform="matrix(1 0 0 1 155 104.5464)"><tspan x="0" y="0" class="st12 st13">Heutiger Verbrauch:</tspan><tspan x="0" y="33.6" class="st12 st13">0,42 kW/h</tspan></text>
<rect x="155" y="256.7" class="st11" width="344.7" height="98.7"/>
<text transform="matrix(1 0 0 1 155 276.5464)"><tspan x="0" y="0" class="st12 st13">Momentaner Verbrauch:</tspan><tspan x="0" y="33.6" class="st12 st13">140 W</tspan></text>
<rect x="155" y="415.7" class="st11" width="345.7" height="98.7"/>
<text transform="matrix(1 0 0 1 155 435.5464)"><tspan x="0" y="0" class="st12 st13">Voraussichtlicher Verbrauch </tspan><tspan x="0" y="33.6" class="st12 st13">bis ende des Tages:</tspan><tspan x="0" y="67.2" class="st12 st13">0,98 kW/h</tspan></text>
<line class="st14" x1="51" y1="373" x2="509" y2="373"/>
<line class="st14" x1="51" y1="197" x2="509" y2="197"/>
<rect x="89.5" y="237.5" class="st8" width="33" height="84"/>
<rect x="95.5" y="265.5" class="st15" width="20" height="50"/>
<line class="st14" x1="85" y1="253" x2="127" y2="253"/>
<g>
	<rect x="690.5" y="52.5" class="st0" width="459" height="617"/>
	<path class="st1" d="M1147,55v612H693V55H1147 M1152,50H688v622h464V50L1152,50z"/>
</g>
<line class="st2" x1="691" y1="579.1" x2="1149" y2="579.1"/>
<line class="st2" x1="920" y1="669" x2="920" y2="579.1"/>
<g>
	<path class="st3" d="M1026.8,636.2v-13.6c0,0-0.5-7.7,7.7-7.7"/>
	<path class="st3" d="M1026.8,634.9v13.6c0,0-0.5,7.7,7.7,7.7"/>
	<path class="st3" d="M1042.2,636.2v-13.6c0,0,0.5-7.7-7.7-7.7"/>
	<path class="st3" d="M1042.2,634.9v13.6c0,0,0.5,7.7-7.7,7.7"/>
	<circle class="st3" cx="1034.5" cy="602.7" r="7.7"/>
</g>
<g>
	<g>
		<path d="M832.2,599.8C832.2,599.8,832.2,599.8,832.2,599.8L832.2,599.8c-1.3-1.3-3-2-4.7-2s-3.5,0.7-4.7,2c-2.6,2.6-2.6,6.9,0,9.5
			c0,0,0,0,0,0c3.8,3.8,5.9,8.8,5.9,14.2s-2.1,10.4-5.9,14.2c-3.8,3.8-8.8,5.9-14.2,5.9c-5.4,0-10.4-2.1-14.2-5.9
			c-3.8-3.8-5.9-8.8-5.9-14.2c0-5.4,2.1-10.4,5.9-14.2c2.6-2.6,2.6-6.9,0-9.5c-1.3-1.3-3-2-4.7-2c-1.8,0-3.5,0.7-4.7,2v0l0,0
			c-13.1,13.1-13.1,34.3,0,47.4c6.5,6.5,15.1,9.8,23.7,9.8c8.6,0,17.1-3.3,23.7-9.8C845.3,634.1,845.3,612.9,832.2,599.8z M829,644
			c-5.5,5.5-12.8,8.5-20.5,8.5c-7.8,0-15-3-20.5-8.5c-11.3-11.3-11.3-29.7,0-41.1h0c0,0,0,0,0,0c0.4-0.4,1-0.7,1.6-0.7
			c0.6,0,1.1,0.2,1.6,0.7c0.9,0.9,0.9,2.3,0,3.2c0,0,0,0,0,0c-9.6,9.6-9.6,25.1,0,34.7c4.8,4.8,11.1,7.2,17.4,7.2
			c6.3,0,12.6-2.4,17.4-7.2c9.6-9.6,9.6-25.1,0-34.7c0,0,0,0,0,0l0,0c-0.9-0.9-0.9-2.3,0-3.2c0.4-0.4,1-0.7,1.6-0.7s1.1,0.2,1.6,0.7
			l0,0l0,0C840.3,614.3,840.3,632.7,829,644z M808.5,630.2c3.7,0,6.7-3,6.7-6.7v-26.8c0-3.7-3-6.7-6.7-6.7c-3.7,0-6.7,3-6.7,6.7
			v26.8C801.8,627.2,804.8,630.2,808.5,630.2z M806.3,596.7c0-1.2,1-2.2,2.2-2.2c1.2,0,2.2,1,2.2,2.2v26.8c0,1.2-1,2.2-2.2,2.2
			c-1.2,0-2.2-1-2.2-2.2V596.7z"/>
	</g>
</g>
<path class="st4" d="M704.5,134.1V88.4c0-0.2-0.2-0.4-0.4-0.4h-0.7c-0.2,0-0.4,0.2-0.4,0.4v46.1v1.1c0,0.2,0.2,0.4,0.4,0.4h1.1h74.1
	c0.2,0,0.4-0.2,0.4-0.4v-0.7c0-0.2-0.2-0.4-0.4-0.4h-73.7C704.7,134.5,704.5,134.3,704.5,134.1z"/>
<line class="st5" x1="750" y1="112" x2="762.6" y2="100.5"/>
<polyline class="st5" points="709.7,128.2 726.8,114.7 734,117.6 743.6,109.1 750,112 "/>
<polyline class="st6" points="762.6,100.5 750,112 743.6,109.1 734,117.6 726.8,114.7 709.7,128.2 "/>
<path class="st4" d="M705.5,479.5v-45.1c0-0.2-0.2-0.4-0.4-0.4h-0.7c-0.2,0-0.4,0.2-0.4,0.4v45.5v1.1c0,0.2,0.2,0.4,0.4,0.4h1.1
	h73.1c0.2,0,0.4-0.2,0.4-0.4v-0.7c0-0.2-0.2-0.4-0.4-0.4h-72.7C705.7,479.9,705.5,479.7,705.5,479.5z"/>
<line class="st5" x1="750.4" y1="457.7" x2="762.9" y2="446.3"/>
<polyline class="st5" points="710.6,473.7 727.5,460.3 734.6,463.2 744.1,454.8 750.4,457.7 "/>
<polyline class="st6" points="762.9,446.3 750.4,457.7 744.1,454.8 734.6,463.2 727.5,460.3 710.6,473.7 "/>
<g>
	<g>
		<path class="st7" d="M767.2,440.5c-1,0-1.8,0.8-1.8,1.8v0.2c0,0.1,0.1,0.2,0.2,0.2h0.7c0.1,0,0.2-0.1,0.2-0.2v-0.2
			c0-0.4,0.3-0.7,0.7-0.7s0.7,0.3,0.7,0.7c0,0.4-0.3,0.7-0.7,0.7s-0.7,0.3-0.7,0.7v0.9c0,0.1,0.1,0.2,0.2,0.2h0.7
			c0.1,0,0.2-0.1,0.2-0.2v-0.6c0.9-0.2,1.5-0.9,1.5-1.8C769,441.3,768.2,440.5,767.2,440.5z M767.3,443.8c-0.1,0-0.1,0.1-0.1,0.2
			v0.6h-0.4v-0.7c0-0.2,0.2-0.4,0.4-0.4c0.6,0,1.1-0.5,1.1-1.1c0-0.6-0.5-1.1-1.1-1.1s-1.1,0.5-1.1,1.1h-0.4c0-0.8,0.7-1.5,1.5-1.5
			s1.5,0.7,1.5,1.5C768.6,443.1,768,443.7,767.3,443.8z"/>
		<path class="st7" d="M767,445.3c-0.3,0-0.6,0.2-0.6,0.6c0,0.3,0.2,0.6,0.6,0.6s0.6-0.2,0.6-0.6C767.5,445.5,767.3,445.3,767,445.3
			z M767,446c-0.1,0-0.2-0.1-0.2-0.2s0.1-0.2,0.2-0.2s0.2,0.1,0.2,0.2S767.1,446,767,446z"/>
	</g>
	<circle class="st8" cx="767.1" cy="443.4" r="4.4"/>
	<circle class="st9" cx="767.1" cy="443.4" r="4.4"/>
	<path class="st10" d="M774.2,450.6l-3.7-3.7c-0.1-0.1-0.1-0.1,0-0.2l0.2-0.2c0.1-0.1,0.1-0.1,0.2,0l3.7,3.7c0.1,0.1,0.1,0.1,0,0.2
		l-0.2,0.2C774.3,450.6,774.2,450.6,774.2,450.6z"/>
</g>
<rect x="795" y="84.7" class="st11" width="345.7" height="98.7"/>
<text transform="matrix(1 0 0 1 795 104.5464)"><tspan x="0" y="0" class="st12 st13">Heutiger Verbrauch:</tspan><tspan x="0" y="33.6" class="st12 st13">0,36 kW/h</tspan></text>
<rect x="795" y="256.7" class="st11" width="344.7" height="98.7"/>
<text transform="matrix(1 0 0 1 795 276.5464)"><tspan x="0" y="0" class="st12 st13">Momentaner Verbrauch:</tspan><tspan x="0" y="33.6" class="st12 st13">120 W</tspan></text>
<rect x="795" y="415.7" class="st11" width="345.7" height="98.7"/>
<text transform="matrix(1 0 0 1 795 435.5464)"><tspan x="0" y="0" class="st12 st13">Voraussichtlicher Verbrauch </tspan><tspan x="0" y="33.6" class="st12 st13">bis ende des Tages:</tspan><tspan x="0" y="67.2" class="st12 st13">0,84 kW/h</tspan></text>
<line class="st14" x1="691" y1="373" x2="1149" y2="373"/>
<line class="st14" x1="691" y1="197" x2="1149" y2="197"/>
<rect x="722.5" y="237.5" class="st8" width="33" height="84"/>
<rect x="728.5" y="281" class="st16" width="20" height="34.5"/>
<line class="st14" x1="718" y1="253" x2="760" y2="253"/>
<g>
	<rect x="1323.5" y="52.5" class="st0" width="459" height="617"/>
	<path class="st1" d="M1780,55v612h-454V55H1780 M1785,50h-464v622h464V50L1785,50z"/>
</g>
<line class="st2" x1="1324" y1="579.1" x2="1782" y2="579.1"/>
<line class="st2" x1="1553" y1="669" x2="1553" y2="579.1"/>
<g>
	<path class="st3" d="M1659.8,636.2v-13.6c0,0-0.5-7.7,7.7-7.7"/>
	<path class="st3" d="M1659.8,634.9v13.6c0,0-0.5,7.7,7.7,7.7"/>
	<path class="st3" d="M1675.2,636.2v-13.6c0,0,0.5-7.7-7.7-7.7"/>
	<path class="st3" d="M1675.2,634.9v13.6c0,0,0.5,7.7-7.7,7.7"/>
	<circle class="st3" cx="1667.5" cy="602.7" r="7.7"/>
</g>
<g>
	<g>
		<path d="M1465.2,599.8C1465.2,599.8,1465.2,599.8,1465.2,599.8L1465.2,599.8c-1.3-1.3-3-2-4.7-2c-1.8,0-3.5,0.7-4.7,2
			c-2.6,2.6-2.6,6.9,0,9.5c0,0,0,0,0,0c3.8,3.8,5.9,8.8,5.9,14.2s-2.1,10.4-5.9,14.2c-3.8,3.8-8.8,5.9-14.2,5.9s-10.4-2.1-14.2-5.9
			c-3.8-3.8-5.9-8.8-5.9-14.2c0-5.4,2.1-10.4,5.9-14.2c2.6-2.6,2.6-6.9,0-9.5c-1.3-1.3-3-2-4.7-2c-1.8,0-3.5,0.7-4.7,2v0l0,0
			c-13.1,13.1-13.1,34.3,0,47.4c6.5,6.5,15.1,9.8,23.7,9.8c8.6,0,17.1-3.3,23.7-9.8C1478.3,634.1,1478.3,612.9,1465.2,599.8z
			 M1462,644c-5.5,5.5-12.8,8.5-20.5,8.5c-7.8,0-15-3-20.5-8.5c-11.3-11.3-11.3-29.7,0-41.1h0c0,0,0,0,0,0c0.4-0.4,1-0.7,1.6-0.7
			c0.6,0,1.1,0.2,1.6,0.7c0.9,0.9,0.9,2.3,0,3.2c0,0,0,0,0,0c-9.6,9.6-9.6,25.1,0,34.7c4.8,4.8,11.1,7.2,17.4,7.2
			c6.3,0,12.6-2.4,17.4-7.2c9.6-9.6,9.6-25.1,0-34.7c0,0,0,0,0,0l0,0c-0.9-0.9-0.9-2.3,0-3.2c0.4-0.4,1-0.7,1.6-0.7s1.1,0.2,1.6,0.7
			l0,0l0,0C1473.3,614.3,1473.3,632.7,1462,644z M1441.5,630.2c3.7,0,6.7-3,6.7-6.7v-26.8c0-3.7-3-6.7-6.7-6.7s-6.7,3-6.7,6.7v26.8
			C1434.8,627.2,1437.8,630.2,1441.5,630.2z M1439.3,596.7c0-1.2,1-2.2,2.2-2.2c1.2,0,2.2,1,2.2,2.2v26.8c0,1.2-1,2.2-2.2,2.2
			c-1.2,0-2.2-1-2.2-2.2V596.7z"/>
	</g>
</g>
<path class="st4" d="M1337.5,134.1V88.4c0-0.2-0.2-0.4-0.4-0.4h-0.7c-0.2,0-0.4,0.2-0.4,0.4v46.1v1.1c0,0.2,0.2,0.4,0.4,0.4h1.1
	h74.1c0.2,0,0.4-0.2,0.4-0.4v-0.7c0-0.2-0.2-0.4-0.4-0.4h-73.7C1337.7,134.5,1337.5,134.3,1337.5,134.1z"/>
<line class="st5" x1="1383" y1="112" x2="1395.6" y2="100.5"/>
<polyline class="st5" points="1342.7,128.2 1359.8,114.7 1367,117.6 1376.6,109.1 1383,112 "/>
<polyline class="st6" points="1395.6,100.5 1383,112 1376.6,109.1 1367,117.6 1359.8,114.7 1342.7,128.2 "/>
<path class="st4" d="M1338.5,479.5v-45.1c0-0.2-0.2-0.4-0.4-0.4h-0.7c-0.2,0-0.4,0.2-0.4,0.4v45.5v1.1c0,0.2,0.2,0.4,0.4,0.4h1.1
	h73.1c0.2,0,0.4-0.2,0.4-0.4v-0.7c0-0.2-0.2-0.4-0.4-0.4h-72.7C1338.7,479.9,1338.5,479.7,1338.5,479.5z"/>
<line class="st5" x1="1383.4" y1="457.7" x2="1395.9" y2="446.3"/>
<polyline class="st5" points="1343.6,473.7 1360.5,460.3 1367.6,463.2 1377.1,454.8 1383.4,457.7 "/>
<polyline class="st6" points="1395.9,446.3 1383.4,457.7 1377.1,454.8 1367.6,463.2 1360.5,460.3 1343.6,473.7 "/>
<g>
	<g>
		<path class="st7" d="M1400.2,440.5c-1,0-1.8,0.8-1.8,1.8v0.2c0,0.1,0.1,0.2,0.2,0.2h0.7c0.1,0,0.2-0.1,0.2-0.2v-0.2
			c0-0.4,0.3-0.7,0.7-0.7c0.4,0,0.7,0.3,0.7,0.7c0,0.4-0.3,0.7-0.7,0.7c-0.4,0-0.7,0.3-0.7,0.7v0.9c0,0.1,0.1,0.2,0.2,0.2h0.7
			c0.1,0,0.2-0.1,0.2-0.2v-0.6c0.9-0.2,1.5-0.9,1.5-1.8C1402,441.3,1401.2,440.5,1400.2,440.5z M1400.3,443.8
			c-0.1,0-0.1,0.1-0.1,0.2v0.6h-0.4v-0.7c0-0.2,0.2-0.4,0.4-0.4c0.6,0,1.1-0.5,1.1-1.1c0-0.6-0.5-1.1-1.1-1.1
			c-0.6,0-1.1,0.5-1.1,1.1h-0.4c0-0.8,0.7-1.5,1.5-1.5c0.8,0,1.5,0.7,1.5,1.5C1401.6,443.1,1401,443.7,1400.3,443.8z"/>
		<path class="st7" d="M1400,445.3c-0.3,0-0.6,0.2-0.6,0.6c0,0.3,0.2,0.6,0.6,0.6c0.3,0,0.6-0.2,0.6-0.6
			C1400.5,445.5,1400.3,445.3,1400,445.3z M1400,446c-0.1,0-0.2-0.1-0.2-0.2s0.1-0.2,0.2-0.2c0.1,0,0.2,0.1,0.2,0.2
			S1400.1,446,1400,446z"/>
	</g>
	<circle class="st8" cx="1400.1" cy="443.4" r="4.4"/>
	<circle class="st9" cx="1400.1" cy="443.4" r="4.4"/>
	<path class="st10" d="M1407.2,450.6l-3.7-3.7c-0.1-0.1-0.1-0.1,0-0.2l0.2-0.2c0.1-0.1,0.1-0.1,0.2,0l3.7,3.7c0.1,0.1,0.1,0.1,0,0.2
		l-0.2,0.2C1407.3,450.6,1407.2,450.6,1407.2,450.6z"/>
</g>
<rect x="1428" y="84.7" class="st11" width="345.7" height="98.7"/>
<text transform="matrix(1 0 0 1 1428 104.5464)"><tspan x="0" y="0" class="st12 st13">Heutiger Verbrauch:</tspan><tspan x="0" y="33.6" class="st12 st13">0,5 kW/h</tspan></text>
<rect x="1428" y="256.7" class="st11" width="344.7" height="98.7"/>
<text transform="matrix(1 0 0 1 1428 276.5464)"><tspan x="0" y="0" class="st12 st13">Momentaner Verbrauch:</tspan><tspan x="0" y="33.6" class="st12 st13">180 W</tspan></text>
<rect x="1428" y="415.7" class="st11" width="345.7" height="98.7"/>
<text transform="matrix(1 0 0 1 1428 435.5464)"><tspan x="0" y="0" class="st12 st13">Voraussichtlicher Verbrauch </tspan><tspan x="0" y="33.6" class="st12 st13">bis ende des Tages:</tspan><tspan x="0" y="67.2" class="st12 st13">1,26 kW/h</tspan></text>
<line class="st14" x1="1324" y1="373" x2="1782" y2="373"/>
<line class="st14" x1="1324" y1="197" x2="1782" y2="197"/>
<rect x="1355.5" y="237.5" class="st8" width="33" height="84"/>
<rect x="1362.5" y="246" class="st17" width="20" height="69.5"/>
<line class="st14" x1="1351" y1="253" x2="1393" y2="253"/>
<rect x="122" y="864" class="st18" width="1618" height="722"/>
<path class="st19" d="M188.2,1050.6V924.2c0-0.7-0.5-1.2-1.2-1.2h-1.8c-0.7,0-1.2,0.5-1.2,1.2v127.7v3c0,0.7,0.5,1.2,1.2,1.2h3
	h205.2c0.7,0,1.2-0.5,1.2-1.2v-1.8c0-0.7-0.5-1.2-1.2-1.2h-204C188.7,1051.9,188.2,1051.3,188.2,1050.6z"/>
<line class="st20" x1="314.3" y1="989.4" x2="349.2" y2="957.5"/>
<polyline class="st20" points="202.5,1034.3 249.9,996.9 269.9,1004.9 296.5,981.4 314.3,989.4 "/>
<polyline class="st6" points="349.2,957.5 314.3,989.4 296.5,981.4 269.9,1004.9 249.9,996.9 202.5,1034.3 "/>
<path class="st19" d="M188.2,1468.5v-126.4c0-0.7-0.5-1.2-1.2-1.2h-1.8c-0.7,0-1.2,0.5-1.2,1.2v127.6v3c0,0.7,0.5,1.2,1.2,1.2h3h205
	c0.7,0,1.2-0.5,1.2-1.2v-1.8c0-0.7-0.5-1.2-1.2-1.2H189.3C188.7,1469.8,188.2,1469.2,188.2,1468.5z"/>
<line class="st20" x1="314.2" y1="1407.4" x2="349.1" y2="1375.5"/>
<polyline class="st20" points="202.5,1452.2 249.9,1414.9 269.8,1422.8 296.4,1399.3 314.2,1407.4 "/>
<polyline class="st6" points="349.1,1375.5 314.2,1407.4 296.4,1399.3 269.8,1422.8 249.9,1414.9 202.5,1452.2 "/>
<g>
	<g>
		<path class="st7" d="M361.1,1359.2c-2.8,0-5.2,2.3-5.2,5.2v0.5c0,0.2,0.2,0.5,0.5,0.5h2.1c0.2,0,0.5-0.2,0.5-0.5v-0.5
			c0-1.2,0.9-2.1,2.1-2.1s2.1,0.9,2.1,2.1s-0.9,2.1-2.1,2.1s-2.1,0.9-2.1,2.1v2.6c0,0.2,0.2,0.5,0.5,0.5h2.1c0.2,0,0.5-0.2,0.5-0.5
			v-1.7c2.4-0.5,4.1-2.6,4.1-5.1C366.3,1361.5,363.9,1359.2,361.1,1359.2z M361.5,1368.4c-0.2,0-0.4,0.2-0.4,0.5v1.6h-1v-2.1
			c0-0.6,0.5-1,1-1c1.7,0,3.1-1.4,3.1-3.1s-1.4-3.1-3.1-3.1c-1.7,0-3.1,1.4-3.1,3.1h-1c0-2.2,1.8-4.1,4.1-4.1c2.2,0,4.1,1.8,4.1,4.1
			C365.2,1366.4,363.6,1368.2,361.5,1368.4z"/>
		<path class="st7" d="M360.6,1372.6c-0.8,0-1.6,0.7-1.6,1.6c0,0.8,0.7,1.6,1.6,1.6c0.9,0,1.6-0.7,1.6-1.6
			C362.1,1373.2,361.4,1372.6,360.6,1372.6z M360.6,1374.6c-0.2,0-0.5-0.2-0.5-0.5c0-0.2,0.2-0.5,0.5-0.5c0.2,0,0.5,0.2,0.5,0.5
			C361.1,1374.4,360.9,1374.6,360.6,1374.6z"/>
	</g>
	<circle class="st8" cx="361" cy="1367.3" r="12.4"/>
	<circle class="st9" cx="361" cy="1367.3" r="12.4"/>
	<path class="st10" d="M380.8,1387.4l-10.5-10.5c-0.2-0.2-0.2-0.3,0-0.5l0.6-0.6c0.2-0.2,0.3-0.2,0.5,0l10.5,10.5
		c0.2,0.2,0.2,0.3,0,0.5l-0.6,0.6C381.2,1387.5,381,1387.5,380.8,1387.4z"/>
</g>
<rect x="492.1" y="968.6" class="st11" width="313.9" height="42.4"/>
<text transform="matrix(1 0 0 1 492.1138 994.8745)" class="st12 st21">Heutiger Verbrauch:</text>
<rect x="851.1" y="917.1" class="st11" width="148.9" height="97.9"/>
<text transform="matrix(1 0 0 1 851.0977 943.376)"><tspan x="0" y="0" class="st12 st21">Küche:</tspan><tspan x="0" y="44.4" class="st12 st21">0,8 kW/h</tspan></text>
<rect x="1014.1" y="917.1" class="st11" width="235.9" height="97.9"/>
<text transform="matrix(1 0 0 1 1014.0977 943.376)"><tspan x="0" y="0" class="st12 st21">Wohnzimmer: </tspan><tspan x="0" y="44.4" class="st12 st21">0, 5 kW/h</tspan></text>
<rect x="1278.1" y="917.1" class="st11" width="235.9" height="97.9"/>
<text transform="matrix(1 0 0 1 1278.0977 943.376)"><tspan x="0" y="0" class="st12 st21">Schlafzimmer:</tspan><tspan x="0" y="44.4" class="st12 st21">0,12 kW/h</tspan></text>
<rect x="1538.1" y="917.1" class="st11" width="195.9" height="97.9"/>
<text transform="matrix(1 0 0 1 1538.0977 943.376)"><tspan x="0" y="0" class="st12 st21">Bad:</tspan><tspan x="0" y="44.4" class="st12 st21">0,32 kW/h</tspan></text>
<rect x="494.1" y="1389.6" class="st11" width="313.9" height="42.4"/>
<text transform="matrix(1 0 0 1 494.1138 1415.8745)" class="st12 st21">Vorhersage:</text>
<rect x="851.1" y="1338.1" class="st11" width="148.9" height="97.9"/>
<text transform="matrix(1 0 0 1 851.0977 1364.376)"><tspan x="0" y="0" class="st12 st21">Küche:</tspan><tspan x="0" y="44.4" class="st12 st21">1,4 kW/h</tspan></text>
<rect x="1014.1" y="1338.1" class="st11" width="235.9" height="97.9"/>
<text transform="matrix(1 0 0 1 1014.0977 1364.376)"><tspan x="0" y="0" class="st12 st21">Wohnzimmer:</tspan><tspan x="0" y="44.4" class="st12 st21">1,5 kW/h</tspan></text>
<rect x="1278.1" y="1338.1" class="st11" width="235.9" height="97.9"/>
<text transform="matrix(1 0 0 1 1278.0977 1364.376)"><tspan x="0" y="0" class="st12 st21">Schlafzimmer:</tspan><tspan x="0" y="44.4" class="st12 st21">0,2 kW/h</tspan></text>
<rect x="1538.1" y="1338.1" class="st11" width="185.9" height="97.9"/>
<text transform="matrix(1 0 0 1 1538.0977 1364.376)"><tspan x="0" y="0" class="st12 st21">Bad:</tspan><tspan x="0" y="44.4" class="st12 st21">0,38 kW/h</tspan></text>
<rect x="494.1" y="1183.6" class="st11" width="398.9" height="42.4"/>
<text transform="matrix(1 0 0 1 494.1138 1209.8745)" class="st12 st21">Jetzt / Gestern:</text>
<rect x="853.1" y="1132.1" class="st11" width="148.9" height="97.9"/>
<text transform="matrix(1 0 0 1 853.0977 1158.376)"><tspan x="0" y="0" class="st12 st21">Küche:</tspan><tspan x="0" y="44.4" class="st12 st21">- 200 W</tspan></text>
<rect x="1016.1" y="1132.1" class="st11" width="235.9" height="97.9"/>
<text transform="matrix(1 0 0 1 1016.0977 1158.376)"><tspan x="0" y="0" class="st12 st21">Wohnzimmer:</tspan><tspan x="0" y="44.4" class="st12 st21">+180 W</tspan></text>
<rect x="1280.1" y="1132.1" class="st11" width="235.9" height="97.9"/>
<text transform="matrix(1 0 0 1 1280.0977 1158.376)"><tspan x="0" y="0" class="st12 st21">Schlafzimmer:</tspan><tspan x="0" y="44.4" class="st12 st21"> +- 0 W</tspan></text>
<rect x="1540.1" y="1132.1" class="st11" width="148.9" height="97.9"/>
<text transform="matrix(1 0 0 1 1540.0977 1158.376)"><tspan x="0" y="0" class="st12 st21">Bad:</tspan><tspan x="0" y="44.4" class="st12 st21">-60 W</tspan></text>
<path class="st19" d="M188.2,1255.6v-126.5c0-0.7-0.5-1.2-1.2-1.2h-1.8c-0.7,0-1.2,0.5-1.2,1.2v127.7v3c0,0.7,0.5,1.2,1.2,1.2h3
	h205.2c0.7,0,1.2-0.5,1.2-1.2v-1.8c0-0.7-0.5-1.2-1.2-1.2h-204C188.7,1256.9,188.2,1256.3,188.2,1255.6z"/>
<polyline class="st22" points="350.5,1183.5 320.5,1167.5 272.5,1225.5 256.5,1210.5 237.5,1190.5 198.5,1248.5 "/>
<polyline class="st23" points="198.5,1248.5 233.5,1218.5 258.5,1183.5 277.5,1202.5 327.5,1183.5 350.5,1199.5 "/>
<g>
	<path class="st3" d="M1390.7,1530.2v-13.6c0,0-0.5-7.7,7.7-7.7"/>
	<path class="st3" d="M1390.7,1528.9v13.6c0,0-0.5,7.7,7.7,7.7"/>
	<path class="st3" d="M1406.1,1530.2v-13.6c0,0,0.5-7.7-7.7-7.7"/>
	<path class="st3" d="M1406.1,1528.9v13.6c0,0,0.5,7.7-7.7,7.7"/>
	<circle class="st3" cx="1398.4" cy="1496.7" r="7.7"/>
</g>
<g>
	<g>
		<path d="M1629,1541.2c6.5,6.5,15.1,9.8,23.7,9.8c8.6,0,17.1-3.3,23.7-9.8c13.1-13.1,13.1-34.3,0-47.4l0,0v0c-1.3-1.3-2.9-2-4.7-2
			c-1.8,0-3.5,0.7-4.7,2c-2.6,2.6-2.6,6.9,0,9.5c3.8,3.8,5.9,8.8,5.9,14.2c0,5.4-2.1,10.4-5.9,14.2c-3.8,3.8-8.8,5.9-14.2,5.9
			s-10.4-2.1-14.2-5.9c-3.8-3.8-5.9-8.8-5.9-14.2s2.1-10.4,5.9-14.2c0,0,0,0,0,0c2.6-2.6,2.6-6.9,0-9.5c-1.3-1.3-2.9-2-4.7-2
			c-1.8,0-3.5,0.7-4.7,2l0,0c0,0,0,0,0,0C1615.9,1506.9,1615.9,1528.1,1629,1541.2z M1632.2,1497L1632.2,1497L1632.2,1497
			c0.4-0.4,1-0.7,1.6-0.7s1.1,0.2,1.6,0.7c0.9,0.9,0.9,2.3,0,3.2l0,0c0,0,0,0,0,0c-9.6,9.6-9.6,25.1,0,34.7
			c4.8,4.8,11.1,7.2,17.4,7.2c6.3,0,12.6-2.4,17.4-7.2c9.6-9.6,9.6-25.1,0-34.7c0,0,0,0,0,0c-0.9-0.9-0.9-2.3,0-3.2
			c0.4-0.4,1-0.7,1.6-0.7c0.6,0,1.1,0.2,1.6,0.7c0,0,0,0,0,0h0c11.3,11.3,11.3,29.7,0,41.1c-5.5,5.5-12.8,8.5-20.5,8.5
			c-7.8,0-15-3-20.5-8.5C1620.9,1526.7,1620.9,1508.3,1632.2,1497z M1659.4,1517.5v-26.8c0-3.7-3-6.7-6.7-6.7s-6.7,3-6.7,6.7v26.8
			c0,3.7,3,6.7,6.7,6.7S1659.4,1521.2,1659.4,1517.5z M1654.9,1517.5c0,1.2-1,2.2-2.2,2.2s-2.2-1-2.2-2.2v-26.8c0-1.2,1-2.2,2.2-2.2
			s2.2,1,2.2,2.2V1517.5z"/>
	</g>
</g>
<g>
	<g>
		<path d="M1482.4,1514.8v6.3c0,2.2,1.6,4,3.7,4.4l5.1,0.8c0.5,1.7,1.2,3.3,2,4.9l-3,4.2c-1.3,1.8-1.1,4.2,0.5,5.7l4.5,4.5
			c0.8,0.8,2,1.3,3.1,1.3l0,0c0.9,0,1.8-0.3,2.6-0.8l4.2-3c1.6,0.8,3.2,1.5,4.9,2l0.9,5.1c0.4,2.2,2.2,3.7,4.4,3.7h6.3
			c2.2,0,4-1.6,4.4-3.7l0.8-5.1c1.6-0.5,3.2-1.2,4.8-2l4.2,3c0.8,0.5,1.6,0.8,2.6,0.8c1.2,0,2.3-0.5,3.1-1.3l4.5-4.5
			c1.5-1.5,1.7-4,0.5-5.7l-3-4.1c0.8-1.6,1.5-3.2,2.1-4.9l5.1-0.9c2.2-0.4,3.7-2.2,3.7-4.4v-6.3c0-2.2-1.6-4-3.7-4.4l-5-0.8
			c-0.5-1.7-1.2-3.3-2-4.9l3-4.2c1.3-1.8,1.1-4.2-0.5-5.7l-4.5-4.5c-0.8-0.8-2-1.3-3.1-1.3c-0.9,0-1.8,0.3-2.6,0.8l-4.1,3
			c-1.6-0.8-3.2-1.5-4.9-2.1l-0.9-5.1c-0.4-2.2-2.2-3.7-4.4-3.7h-6.3c-2.2,0-4,1.6-4.4,3.7l-0.8,5c-1.8,0.5-3.5,1.2-5.1,2.1l-4.2-3
			c-0.8-0.5-1.6-0.8-2.6-0.8c-1.2,0-2.3,0.5-3.1,1.3l-4.5,4.5c-1.5,1.5-1.7,4-0.5,5.7l3,4.2c-0.8,1.6-1.5,3.2-2,4.9l-5.1,0.9
			C1483.9,1510.8,1482.4,1512.7,1482.4,1514.8z M1486.4,1521.2v-6.3c0-0.2,0.1-0.4,0.3-0.4l6.3-1.1c0.8-0.1,1.4-0.7,1.6-1.5
			c0.6-2.2,1.4-4.3,2.6-6.3c0.4-0.7,0.4-1.6-0.1-2.2l-3.7-5.2c-0.1-0.2-0.1-0.4,0-0.5l4.5-4.5c0.1-0.1,0.2-0.1,0.3-0.1
			c0.1,0,0.2,0,0.2,0.1l5.2,3.7c0.7,0.5,1.5,0.5,2.2,0.1c2-1.2,4.2-2.1,6.5-2.6c0.8-0.2,1.4-0.8,1.5-1.6l1.1-6.3
			c0-0.2,0.2-0.3,0.4-0.3h6.3c0.2,0,0.4,0.1,0.4,0.3l1.1,6.4c0.1,0.8,0.7,1.4,1.5,1.6c2.2,0.6,4.3,1.5,6.3,2.6
			c0.7,0.4,1.6,0.4,2.2-0.1l5.2-3.7c0.1,0,0.1-0.1,0.2-0.1c0.1,0,0.2,0,0.3,0.1l4.5,4.5c0.1,0.1,0.2,0.4,0,0.5l-3.7,5.3
			c-0.5,0.6-0.5,1.5-0.1,2.2c1.2,2,2,4.1,2.6,6.3c0.2,0.8,0.8,1.4,1.6,1.5l6.3,1.1c0.2,0,0.3,0.2,0.3,0.4v6.3c0,0.2-0.1,0.4-0.3,0.4
			l-6.4,1.1c-0.8,0.1-1.4,0.7-1.6,1.5c-0.6,2.2-1.5,4.3-2.6,6.3c-0.4,0.7-0.4,1.6,0.1,2.2l3.7,5.2c0.1,0.2,0.1,0.4,0,0.5l-4.5,4.5
			c-0.1,0.1-0.2,0.1-0.3,0.1c-0.1,0-0.2,0-0.2-0.1l-5.3-3.7c-0.3-0.3-0.8-0.4-1.2-0.4c-0.3,0-0.7,0.1-1,0.3c-1.9,1.1-4,2-6.2,2.5
			c-0.8,0.2-1.4,0.8-1.5,1.6l-1.1,6.3c0,0.2-0.2,0.3-0.4,0.3h-6.3c-0.2,0-0.4-0.1-0.4-0.3l-1.1-6.3c-0.1-0.8-0.7-1.4-1.5-1.6
			c-2.2-0.6-4.3-1.4-6.3-2.6c-0.7-0.4-1.6-0.4-2.2,0.1l-5.2,3.7c-0.1,0-0.1,0.1-0.2,0.1c-0.1,0-0.2,0-0.3-0.1l-4.5-4.5
			c-0.1-0.1-0.2-0.4,0-0.5l3.7-5.2c0.5-0.7,0.5-1.5,0.1-2.2c-1.2-2-2-4.1-2.6-6.3c-0.2-0.8-0.8-1.4-1.6-1.5l-6.3-1.1
			C1486.6,1521.5,1486.4,1521.4,1486.4,1521.2L1486.4,1521.2z"/>
		<path d="M1502.9,1518c0,8.6,7,15.5,15.5,15.5s15.5-7,15.5-15.5c0-8.6-7-15.5-15.5-15.5S1502.9,1509.4,1502.9,1518z M1506.9,1518
			c0-6.3,5.1-11.5,11.5-11.5s11.5,5.1,11.5,11.5s-5.1,11.5-11.5,11.5S1506.9,1524.3,1506.9,1518z"/>
	</g>
</g>
</svg>
