<?xml version="1.0" encoding="utf-8"?>
<!-- Generator: Adobe Illustrator 22.1.0, SVG Export Plug-In . SVG Version: 6.00 Build 0)  -->
<svg version="1.1" id="Ebene_1" xmlns="http://www.w3.org/2000/svg" xmlns:xlink="http://www.w3.org/1999/xlink" x="0px" y="0px"
	 viewBox="0 0 1920 1080" style="enable-background:new 0 0 1920 1080;" xml:space="preserve">
<style type="text/css">
	.st0{fill:#FFFFFF;}
	.st1{fill:#010101;}
	.st2{fill:none;stroke:#010101;stroke-width:5;stroke-miterlimit:10;}
	.st3{fill:#FFFFFF;stroke:#000000;stroke-width:3;stroke-miterlimit:10;}
	.st4{fill:#FFFFFF;stroke:#000000;stroke-miterlimit:10;}
	.st5{fill:none;stroke:#000000;stroke-width:5;stroke-linecap:round;stroke-miterlimit:10;}
	.st6{fill:none;stroke:#FFFFFF;stroke-width:2;stroke-miterlimit:10;}
	.st7{fill:#020203;}
	.st8{fill:none;stroke:#000000;stroke-width:3;stroke-miterlimit:10;}
	.st9{fill:none;stroke:#FFFFFF;stroke-miterlimit:10;}
	.st10{fill:none;stroke:#000000;stroke-linecap:round;stroke-miterlimit:10;}
	.st11{stroke:#000000;stroke-width:3;stroke-miterlimit:10;}
	.st12{fill:#FFFF00;}
	.st13{fill:#00FF00;}
	.st14{fill:#FF0000;}
	.st15{fill:none;stroke:#000000;stroke-width:5;stroke-miterlimit:10;}
	.st16{fill:#FFFFFF;stroke:#000000;stroke-width:2;stroke-miterlimit:10;}
	.st17{fill:none;stroke:#000000;stroke-width:7;stroke-linecap:round;stroke-miterlimit:10;}
	.st18{fill:none;}
	.st19{font-family:'MyriadPro-Regular';}
	.st20{font-size:37px;}
	.st21{fill:none;stroke:#00FF00;stroke-width:7;stroke-linecap:round;stroke-miterlimit:10;}
	.st22{fill:none;stroke:#FF0000;stroke-width:7;stroke-linecap:round;stroke-miterlimit:10;}
</style>
<g>
	<rect x="50.5" y="-638.5" class="st0" width="459" height="617"/>
	<path class="st1" d="M507-636v612H53v-612H507 M512-641H48v622h464V-641L512-641z"/>
</g>
<line class="st2" x1="51" y1="-111.9" x2="509" y2="-111.9"/>
<line class="st2" x1="280" y1="-22" x2="280" y2="-111.9"/>
<g>
	<path class="st3" d="M386.8-54.8v-13.6c0,0-0.5-7.7,7.7-7.7"/>
	<path class="st3" d="M386.8-56.1v13.6c0,0-0.5,7.7,7.7,7.7"/>
	<path class="st3" d="M402.2-54.8v-13.6c0,0,0.5-7.7-7.7-7.7"/>
	<path class="st3" d="M402.2-56.1v13.6c0,0,0.5,7.7-7.7,7.7"/>
	<circle class="st3" cx="394.5" cy="-88.3" r="7.7"/>
</g>
<g>
	<g>
		<path d="M192.2-91.2C192.2-91.2,192.2-91.2,192.2-91.2L192.2-91.2c-1.3-1.3-3-2-4.7-2s-3.5,0.7-4.7,2c-2.6,2.6-2.6,6.9,0,9.5
			c0,0,0,0,0,0c3.8,3.8,5.9,8.8,5.9,14.2s-2.1,10.4-5.9,14.2c-3.8,3.8-8.8,5.9-14.2,5.9s-10.4-2.1-14.2-5.9
			c-3.8-3.8-5.9-8.8-5.9-14.2c0-5.4,2.1-10.4,5.9-14.2c2.6-2.6,2.6-6.9,0-9.5c-1.3-1.3-3-2-4.7-2c-1.8,0-3.5,0.7-4.7,2v0l0,0
			c-13.1,13.1-13.1,34.3,0,47.4c6.5,6.5,15.1,9.8,23.7,9.8c8.6,0,17.1-3.3,23.7-9.8C205.3-56.9,205.3-78.1,192.2-91.2z M189-47
			c-5.5,5.5-12.8,8.5-20.5,8.5c-7.8,0-15-3-20.5-8.5c-11.3-11.3-11.3-29.7,0-41.1h0c0,0,0,0,0,0c0.4-0.4,1-0.7,1.6-0.7
			c0.6,0,1.1,0.2,1.6,0.7c0.9,0.9,0.9,2.3,0,3.2c0,0,0,0,0,0c-9.6,9.6-9.6,25.1,0,34.7c4.8,4.8,11.1,7.2,17.4,7.2
			c6.3,0,12.6-2.4,17.4-7.2c9.6-9.6,9.6-25.1,0-34.7c0,0,0,0,0,0l0,0c-0.9-0.9-0.9-2.3,0-3.2c0.4-0.4,1-0.7,1.6-0.7
			c0.6,0,1.1,0.2,1.6,0.7l0,0l0,0C200.3-76.7,200.3-58.3,189-47z M168.5-60.8c3.7,0,6.7-3,6.7-6.7v-26.8c0-3.7-3-6.7-6.7-6.7
			s-6.7,3-6.7,6.7v26.8C161.8-63.8,164.8-60.8,168.5-60.8z M166.3-94.3c0-1.2,1-2.2,2.2-2.2s2.2,1,2.2,2.2v26.8c0,1.2-1,2.2-2.2,2.2
			s-2.2-1-2.2-2.2V-94.3z"/>
	</g>
</g>
<path class="st4" d="M64.5-556.9v-45.7c0-0.2-0.2-0.4-0.4-0.4h-0.7c-0.2,0-0.4,0.2-0.4,0.4v46.1v1.1c0,0.2,0.2,0.4,0.4,0.4h1.1h74.1
	c0.2,0,0.4-0.2,0.4-0.4v-0.7c0-0.2-0.2-0.4-0.4-0.4H64.9C64.7-556.5,64.5-556.7,64.5-556.9z"/>
<line class="st5" x1="110" y1="-579" x2="122.6" y2="-590.5"/>
<polyline class="st5" points="69.7,-562.8 86.8,-576.3 94,-573.4 103.6,-581.9 110,-579 "/>
<polyline class="st6" points="122.6,-590.5 110,-579 103.6,-581.9 94,-573.4 86.8,-576.3 69.7,-562.8 "/>
<path class="st4" d="M65.5-211.5v-45.1c0-0.2-0.2-0.4-0.4-0.4h-0.7c-0.2,0-0.4,0.2-0.4,0.4v45.5v1.1c0,0.2,0.2,0.4,0.4,0.4h1.1h73.1
	c0.2,0,0.4-0.2,0.4-0.4v-0.7c0-0.2-0.2-0.4-0.4-0.4H65.9C65.7-211.1,65.5-211.3,65.5-211.5z"/>
<line class="st5" x1="110.4" y1="-233.3" x2="122.9" y2="-244.7"/>
<polyline class="st5" points="70.6,-217.3 87.5,-230.7 94.6,-227.8 104.1,-236.2 110.4,-233.3 "/>
<polyline class="st6" points="122.9,-244.7 110.4,-233.3 104.1,-236.2 94.6,-227.8 87.5,-230.7 70.6,-217.3 "/>
<g>
	<g>
		<path class="st7" d="M127.2-250.5c-1,0-1.8,0.8-1.8,1.8v0.2c0,0.1,0.1,0.2,0.2,0.2h0.7c0.1,0,0.2-0.1,0.2-0.2v-0.2
			c0-0.4,0.3-0.7,0.7-0.7c0.4,0,0.7,0.3,0.7,0.7c0,0.4-0.3,0.7-0.7,0.7c-0.4,0-0.7,0.3-0.7,0.7v0.9c0,0.1,0.1,0.2,0.2,0.2h0.7
			c0.1,0,0.2-0.1,0.2-0.2v-0.6c0.9-0.2,1.5-0.9,1.5-1.8C129-249.7,128.2-250.5,127.2-250.5z M127.3-247.2c-0.1,0-0.1,0.1-0.1,0.2
			v0.6h-0.4v-0.7c0-0.2,0.2-0.4,0.4-0.4c0.6,0,1.1-0.5,1.1-1.1c0-0.6-0.5-1.1-1.1-1.1c-0.6,0-1.1,0.5-1.1,1.1h-0.4
			c0-0.8,0.7-1.5,1.5-1.5c0.8,0,1.5,0.7,1.5,1.5C128.6-247.9,128-247.3,127.3-247.2z"/>
		<path class="st7" d="M127-245.7c-0.3,0-0.6,0.2-0.6,0.6c0,0.3,0.2,0.6,0.6,0.6c0.3,0,0.6-0.2,0.6-0.6
			C127.5-245.5,127.3-245.7,127-245.7z M127-245c-0.1,0-0.2-0.1-0.2-0.2s0.1-0.2,0.2-0.2c0.1,0,0.2,0.1,0.2,0.2S127.1-245,127-245z"
			/>
	</g>
	<circle class="st8" cx="127.1" cy="-247.6" r="4.4"/>
	<circle class="st9" cx="127.1" cy="-247.6" r="4.4"/>
	<path class="st10" d="M134.2-240.4l-3.7-3.7c-0.1-0.1-0.1-0.1,0-0.2l0.2-0.2c0.1-0.1,0.1-0.1,0.2,0l3.7,3.7c0.1,0.1,0.1,0.1,0,0.2
		l-0.2,0.2C134.3-240.4,134.2-240.4,134.2-240.4z"/>
</g>
<rect x="155" y="-606.3" class="st18" width="345.7" height="98.7"/>
<text transform="matrix(1 0 0 1 155 -586.4536)"><tspan x="0" y="0" class="st19" style="font-size:28px;">Heutiger Verbrauch:</tspan><tspan x="0" y="33.6" class="st19" style="font-size:28px;">420 W</tspan></text>
<rect x="155" y="-434.3" class="st18" width="344.7" height="98.7"/>
<text transform="matrix(1 0 0 1 155 -414.4536)"><tspan x="0" y="0" class="st19" style="font-size:28px;">Momentaner Verbrauch:</tspan><tspan x="0" y="33.6" class="st19" style="font-size:28px;">140 W</tspan></text>
<rect x="155" y="-275.3" class="st18" width="345.7" height="98.7"/>
<text transform="matrix(1 0 0 1 155 -255.4536)"><tspan x="0" y="0" class="st19" style="font-size:28px;">Voraussichtlicher Verbrauch </tspan><tspan x="0" y="33.6" class="st19" style="font-size:28px;">bis ende des Tages:</tspan><tspan x="0" y="67.2" class="st19" style="font-size:28px;">980 W</tspan></text>
<line class="st11" x1="51" y1="-318" x2="509" y2="-318"/>
<line class="st11" x1="51" y1="-494" x2="509" y2="-494"/>
<rect x="89.5" y="-453.5" class="st8" width="33" height="84"/>
<rect x="95.5" y="-425.5" class="st12" width="20" height="50"/>
<line class="st11" x1="85" y1="-438" x2="127" y2="-438"/>
<g>
	<rect x="690.5" y="-638.5" class="st0" width="459" height="617"/>
	<path class="st1" d="M1147-636v612H693v-612H1147 M1152-641H688v622h464V-641L1152-641z"/>
</g>
<line class="st2" x1="691" y1="-111.9" x2="1149" y2="-111.9"/>
<line class="st2" x1="920" y1="-22" x2="920" y2="-111.9"/>
<g>
	<path class="st3" d="M1026.8-54.8v-13.6c0,0-0.5-7.7,7.7-7.7"/>
	<path class="st3" d="M1026.8-56.1v13.6c0,0-0.5,7.7,7.7,7.7"/>
	<path class="st3" d="M1042.2-54.8v-13.6c0,0,0.5-7.7-7.7-7.7"/>
	<path class="st3" d="M1042.2-56.1v13.6c0,0,0.5,7.7-7.7,7.7"/>
	<circle class="st3" cx="1034.5" cy="-88.3" r="7.7"/>
</g>
<g>
	<g>
		<path d="M832.2-91.2C832.2-91.2,832.2-91.2,832.2-91.2L832.2-91.2c-1.3-1.3-3-2-4.7-2s-3.5,0.7-4.7,2c-2.6,2.6-2.6,6.9,0,9.5
			c0,0,0,0,0,0c3.8,3.8,5.9,8.8,5.9,14.2s-2.1,10.4-5.9,14.2c-3.8,3.8-8.8,5.9-14.2,5.9c-5.4,0-10.4-2.1-14.2-5.9
			c-3.8-3.8-5.9-8.8-5.9-14.2c0-5.4,2.1-10.4,5.9-14.2c2.6-2.6,2.6-6.9,0-9.5c-1.3-1.3-3-2-4.7-2c-1.8,0-3.5,0.7-4.7,2v0l0,0
			c-13.1,13.1-13.1,34.3,0,47.4c6.5,6.5,15.1,9.8,23.7,9.8c8.6,0,17.1-3.3,23.7-9.8C845.3-56.9,845.3-78.1,832.2-91.2z M829-47
			c-5.5,5.5-12.8,8.5-20.5,8.5c-7.8,0-15-3-20.5-8.5c-11.3-11.3-11.3-29.7,0-41.1h0c0,0,0,0,0,0c0.4-0.4,1-0.7,1.6-0.7
			c0.6,0,1.1,0.2,1.6,0.7c0.9,0.9,0.9,2.3,0,3.2c0,0,0,0,0,0c-9.6,9.6-9.6,25.1,0,34.7c4.8,4.8,11.1,7.2,17.4,7.2
			c6.3,0,12.6-2.4,17.4-7.2c9.6-9.6,9.6-25.1,0-34.7c0,0,0,0,0,0l0,0c-0.9-0.9-0.9-2.3,0-3.2c0.4-0.4,1-0.7,1.6-0.7s1.1,0.2,1.6,0.7
			l0,0l0,0C840.3-76.7,840.3-58.3,829-47z M808.5-60.8c3.7,0,6.7-3,6.7-6.7v-26.8c0-3.7-3-6.7-6.7-6.7c-3.7,0-6.7,3-6.7,6.7v26.8
			C801.8-63.8,804.8-60.8,808.5-60.8z M806.3-94.3c0-1.2,1-2.2,2.2-2.2c1.2,0,2.2,1,2.2,2.2v26.8c0,1.2-1,2.2-2.2,2.2
			c-1.2,0-2.2-1-2.2-2.2V-94.3z"/>
	</g>
</g>
<path class="st4" d="M704.5-556.9v-45.7c0-0.2-0.2-0.4-0.4-0.4h-0.7c-0.2,0-0.4,0.2-0.4,0.4v46.1v1.1c0,0.2,0.2,0.4,0.4,0.4h1.1
	h74.1c0.2,0,0.4-0.2,0.4-0.4v-0.7c0-0.2-0.2-0.4-0.4-0.4h-73.7C704.7-556.5,704.5-556.7,704.5-556.9z"/>
<line class="st5" x1="750" y1="-579" x2="762.6" y2="-590.5"/>
<polyline class="st5" points="709.7,-562.8 726.8,-576.3 734,-573.4 743.6,-581.9 750,-579 "/>
<polyline class="st6" points="762.6,-590.5 750,-579 743.6,-581.9 734,-573.4 726.8,-576.3 709.7,-562.8 "/>
<path class="st4" d="M705.5-211.5v-45.1c0-0.2-0.2-0.4-0.4-0.4h-0.7c-0.2,0-0.4,0.2-0.4,0.4v45.5v1.1c0,0.2,0.2,0.4,0.4,0.4h1.1
	h73.1c0.2,0,0.4-0.2,0.4-0.4v-0.7c0-0.2-0.2-0.4-0.4-0.4h-72.7C705.7-211.1,705.5-211.3,705.5-211.5z"/>
<line class="st5" x1="750.4" y1="-233.3" x2="762.9" y2="-244.7"/>
<polyline class="st5" points="710.6,-217.3 727.5,-230.7 734.6,-227.8 744.1,-236.2 750.4,-233.3 "/>
<polyline class="st6" points="762.9,-244.7 750.4,-233.3 744.1,-236.2 734.6,-227.8 727.5,-230.7 710.6,-217.3 "/>
<g>
	<g>
		<path class="st7" d="M767.2-250.5c-1,0-1.8,0.8-1.8,1.8v0.2c0,0.1,0.1,0.2,0.2,0.2h0.7c0.1,0,0.2-0.1,0.2-0.2v-0.2
			c0-0.4,0.3-0.7,0.7-0.7s0.7,0.3,0.7,0.7c0,0.4-0.3,0.7-0.7,0.7s-0.7,0.3-0.7,0.7v0.9c0,0.1,0.1,0.2,0.2,0.2h0.7
			c0.1,0,0.2-0.1,0.2-0.2v-0.6c0.9-0.2,1.5-0.9,1.5-1.8C769-249.7,768.2-250.5,767.2-250.5z M767.3-247.2c-0.1,0-0.1,0.1-0.1,0.2
			v0.6h-0.4v-0.7c0-0.2,0.2-0.4,0.4-0.4c0.6,0,1.1-0.5,1.1-1.1c0-0.6-0.5-1.1-1.1-1.1s-1.1,0.5-1.1,1.1h-0.4c0-0.8,0.7-1.5,1.5-1.5
			s1.5,0.7,1.5,1.5C768.6-247.9,768-247.3,767.3-247.2z"/>
		<path class="st7" d="M767-245.7c-0.3,0-0.6,0.2-0.6,0.6c0,0.3,0.2,0.6,0.6,0.6s0.6-0.2,0.6-0.6C767.5-245.5,767.3-245.7,767-245.7
			z M767-245c-0.1,0-0.2-0.1-0.2-0.2s0.1-0.2,0.2-0.2s0.2,0.1,0.2,0.2S767.1-245,767-245z"/>
	</g>
	<circle class="st8" cx="767.1" cy="-247.6" r="4.4"/>
	<circle class="st9" cx="767.1" cy="-247.6" r="4.4"/>
	<path class="st10" d="M774.2-240.4l-3.7-3.7c-0.1-0.1-0.1-0.1,0-0.2l0.2-0.2c0.1-0.1,0.1-0.1,0.2,0l3.7,3.7c0.1,0.1,0.1,0.1,0,0.2
		l-0.2,0.2C774.3-240.4,774.2-240.4,774.2-240.4z"/>
</g>
<rect x="795" y="-606.3" class="st18" width="345.7" height="98.7"/>
<text transform="matrix(1 0 0 1 795 -586.4536)"><tspan x="0" y="0" class="st19" style="font-size:28px;">Heutiger Verbrauch:</tspan><tspan x="0" y="33.6" class="st19" style="font-size:28px;">360 W</tspan></text>
<rect x="795" y="-434.3" class="st18" width="344.7" height="98.7"/>
<text transform="matrix(1 0 0 1 795 -414.4536)"><tspan x="0" y="0" class="st19" style="font-size:28px;">Momentaner Verbrauch:</tspan><tspan x="0" y="33.6" class="st19" style="font-size:28px;">120 W</tspan></text>
<rect x="795" y="-275.3" class="st18" width="345.7" height="98.7"/>
<text transform="matrix(1 0 0 1 795 -255.4536)"><tspan x="0" y="0" class="st19" style="font-size:28px;">Voraussichtlicher Verbrauch </tspan><tspan x="0" y="33.6" class="st19" style="font-size:28px;">bis ende des Tages:</tspan><tspan x="0" y="67.2" class="st19" style="font-size:28px;">840 W</tspan></text>
<line class="st11" x1="691" y1="-318" x2="1149" y2="-318"/>
<line class="st11" x1="691" y1="-494" x2="1149" y2="-494"/>
<rect x="722.5" y="-453.5" class="st8" width="33" height="84"/>
<rect x="728.5" y="-410" class="st13" width="20" height="34.5"/>
<line class="st11" x1="718" y1="-438" x2="760" y2="-438"/>
<g>
	<rect x="1323.5" y="-638.5" class="st0" width="459" height="617"/>
	<path class="st1" d="M1780-636v612h-454v-612H1780 M1785-641h-464v622h464V-641L1785-641z"/>
</g>
<line class="st2" x1="1324" y1="-111.9" x2="1782" y2="-111.9"/>
<line class="st2" x1="1553" y1="-22" x2="1553" y2="-111.9"/>
<g>
	<path class="st3" d="M1659.8-54.8v-13.6c0,0-0.5-7.7,7.7-7.7"/>
	<path class="st3" d="M1659.8-56.1v13.6c0,0-0.5,7.7,7.7,7.7"/>
	<path class="st3" d="M1675.2-54.8v-13.6c0,0,0.5-7.7-7.7-7.7"/>
	<path class="st3" d="M1675.2-56.1v13.6c0,0,0.5,7.7-7.7,7.7"/>
	<circle class="st3" cx="1667.5" cy="-88.3" r="7.7"/>
</g>
<g>
	<g>
		<path d="M1465.2-91.2C1465.2-91.2,1465.2-91.2,1465.2-91.2L1465.2-91.2c-1.3-1.3-3-2-4.7-2c-1.8,0-3.5,0.7-4.7,2
			c-2.6,2.6-2.6,6.9,0,9.5c0,0,0,0,0,0c3.8,3.8,5.9,8.8,5.9,14.2s-2.1,10.4-5.9,14.2c-3.8,3.8-8.8,5.9-14.2,5.9s-10.4-2.1-14.2-5.9
			c-3.8-3.8-5.9-8.8-5.9-14.2c0-5.4,2.1-10.4,5.9-14.2c2.6-2.6,2.6-6.9,0-9.5c-1.3-1.3-3-2-4.7-2c-1.8,0-3.5,0.7-4.7,2v0l0,0
			c-13.1,13.1-13.1,34.3,0,47.4c6.5,6.5,15.1,9.8,23.7,9.8c8.6,0,17.1-3.3,23.7-9.8C1478.3-56.9,1478.3-78.1,1465.2-91.2z M1462-47
			c-5.5,5.5-12.8,8.5-20.5,8.5c-7.8,0-15-3-20.5-8.5c-11.3-11.3-11.3-29.7,0-41.1h0c0,0,0,0,0,0c0.4-0.4,1-0.7,1.6-0.7
			c0.6,0,1.1,0.2,1.6,0.7c0.9,0.9,0.9,2.3,0,3.2c0,0,0,0,0,0c-9.6,9.6-9.6,25.1,0,34.7c4.8,4.8,11.1,7.2,17.4,7.2
			c6.3,0,12.6-2.4,17.4-7.2c9.6-9.6,9.6-25.1,0-34.7c0,0,0,0,0,0l0,0c-0.9-0.9-0.9-2.3,0-3.2c0.4-0.4,1-0.7,1.6-0.7s1.1,0.2,1.6,0.7
			l0,0l0,0C1473.3-76.7,1473.3-58.3,1462-47z M1441.5-60.8c3.7,0,6.7-3,6.7-6.7v-26.8c0-3.7-3-6.7-6.7-6.7s-6.7,3-6.7,6.7v26.8
			C1434.8-63.8,1437.8-60.8,1441.5-60.8z M1439.3-94.3c0-1.2,1-2.2,2.2-2.2c1.2,0,2.2,1,2.2,2.2v26.8c0,1.2-1,2.2-2.2,2.2
			c-1.2,0-2.2-1-2.2-2.2V-94.3z"/>
	</g>
</g>
<path class="st4" d="M1337.5-556.9v-45.7c0-0.2-0.2-0.4-0.4-0.4h-0.7c-0.2,0-0.4,0.2-0.4,0.4v46.1v1.1c0,0.2,0.2,0.4,0.4,0.4h1.1
	h74.1c0.2,0,0.4-0.2,0.4-0.4v-0.7c0-0.2-0.2-0.4-0.4-0.4h-73.7C1337.7-556.5,1337.5-556.7,1337.5-556.9z"/>
<line class="st5" x1="1383" y1="-579" x2="1395.6" y2="-590.5"/>
<polyline class="st5" points="1342.7,-562.8 1359.8,-576.3 1367,-573.4 1376.6,-581.9 1383,-579 "/>
<polyline class="st6" points="1395.6,-590.5 1383,-579 1376.6,-581.9 1367,-573.4 1359.8,-576.3 1342.7,-562.8 "/>
<path class="st4" d="M1338.5-211.5v-45.1c0-0.2-0.2-0.4-0.4-0.4h-0.7c-0.2,0-0.4,0.2-0.4,0.4v45.5v1.1c0,0.2,0.2,0.4,0.4,0.4h1.1
	h73.1c0.2,0,0.4-0.2,0.4-0.4v-0.7c0-0.2-0.2-0.4-0.4-0.4h-72.7C1338.7-211.1,1338.5-211.3,1338.5-211.5z"/>
<line class="st5" x1="1383.4" y1="-233.3" x2="1395.9" y2="-244.7"/>
<polyline class="st5" points="1343.6,-217.3 1360.5,-230.7 1367.6,-227.8 1377.1,-236.2 1383.4,-233.3 "/>
<polyline class="st6" points="1395.9,-244.7 1383.4,-233.3 1377.1,-236.2 1367.6,-227.8 1360.5,-230.7 1343.6,-217.3 "/>
<g>
	<g>
		<path class="st7" d="M1400.2-250.5c-1,0-1.8,0.8-1.8,1.8v0.2c0,0.1,0.1,0.2,0.2,0.2h0.7c0.1,0,0.2-0.1,0.2-0.2v-0.2
			c0-0.4,0.3-0.7,0.7-0.7c0.4,0,0.7,0.3,0.7,0.7c0,0.4-0.3,0.7-0.7,0.7c-0.4,0-0.7,0.3-0.7,0.7v0.9c0,0.1,0.1,0.2,0.2,0.2h0.7
			c0.1,0,0.2-0.1,0.2-0.2v-0.6c0.9-0.2,1.5-0.9,1.5-1.8C1402-249.7,1401.2-250.5,1400.2-250.5z M1400.3-247.2
			c-0.1,0-0.1,0.1-0.1,0.2v0.6h-0.4v-0.7c0-0.2,0.2-0.4,0.4-0.4c0.6,0,1.1-0.5,1.1-1.1c0-0.6-0.5-1.1-1.1-1.1
			c-0.6,0-1.1,0.5-1.1,1.1h-0.4c0-0.8,0.7-1.5,1.5-1.5c0.8,0,1.5,0.7,1.5,1.5C1401.6-247.9,1401-247.3,1400.3-247.2z"/>
		<path class="st7" d="M1400-245.7c-0.3,0-0.6,0.2-0.6,0.6c0,0.3,0.2,0.6,0.6,0.6c0.3,0,0.6-0.2,0.6-0.6
			C1400.5-245.5,1400.3-245.7,1400-245.7z M1400-245c-0.1,0-0.2-0.1-0.2-0.2s0.1-0.2,0.2-0.2c0.1,0,0.2,0.1,0.2,0.2
			S1400.1-245,1400-245z"/>
	</g>
	<circle class="st8" cx="1400.1" cy="-247.6" r="4.4"/>
	<circle class="st9" cx="1400.1" cy="-247.6" r="4.4"/>
	<path class="st10" d="M1407.2-240.4l-3.7-3.7c-0.1-0.1-0.1-0.1,0-0.2l0.2-0.2c0.1-0.1,0.1-0.1,0.2,0l3.7,3.7c0.1,0.1,0.1,0.1,0,0.2
		l-0.2,0.2C1407.3-240.4,1407.2-240.4,1407.2-240.4z"/>
</g>
<rect x="1428" y="-606.3" class="st18" width="345.7" height="98.7"/>
<text transform="matrix(1 0 0 1 1428 -586.4536)"><tspan x="0" y="0" class="st19" style="font-size:28px;">Heutiger Verbrauch:</tspan><tspan x="0" y="33.6" class="st19" style="font-size:28px;">540 W</tspan></text>
<rect x="1428" y="-434.3" class="st18" width="344.7" height="98.7"/>
<text transform="matrix(1 0 0 1 1428 -414.4536)"><tspan x="0" y="0" class="st19" style="font-size:28px;">Momentaner Verbrauch:</tspan><tspan x="0" y="33.6" class="st19" style="font-size:28px;">180 W</tspan></text>
<rect x="1428" y="-275.3" class="st18" width="345.7" height="98.7"/>
<text transform="matrix(1 0 0 1 1428 -255.4536)"><tspan x="0" y="0" class="st19" style="font-size:28px;">Voraussichtlicher Verbrauch </tspan><tspan x="0" y="33.6" class="st19" style="font-size:28px;">bis ende des Tages:</tspan><tspan x="0" y="67.2" class="st19" style="font-size:28px;">1,26 kW</tspan></text>
<line class="st11" x1="1324" y1="-318" x2="1782" y2="-318"/>
<line class="st11" x1="1324" y1="-494" x2="1782" y2="-494"/>
<rect x="1355.5" y="-453.5" class="st8" width="33" height="84"/>
<rect x="1362.5" y="-445" class="st14" width="20" height="69.5"/>
<line class="st11" x1="1351" y1="-438" x2="1393" y2="-438"/>
<rect x="122" y="173" class="st15" width="1618" height="722"/>
<path class="st16" d="M188.2,359.6V233.2c0-0.7-0.5-1.2-1.2-1.2h-1.8c-0.7,0-1.2,0.5-1.2,1.2v127.7v3c0,0.7,0.5,1.2,1.2,1.2h3h205.2
	c0.7,0,1.2-0.5,1.2-1.2V362c0-0.7-0.5-1.2-1.2-1.2h-204C188.7,360.9,188.2,360.3,188.2,359.6z"/>
<line class="st17" x1="314.3" y1="298.4" x2="349.2" y2="266.5"/>
<polyline class="st17" points="202.5,343.3 249.9,305.9 269.9,313.9 296.5,290.4 314.3,298.4 "/>
<polyline class="st6" points="349.2,266.5 314.3,298.4 296.5,290.4 269.9,313.9 249.9,305.9 202.5,343.3 "/>
<path class="st16" d="M188.2,777.5V651.2c0-0.7-0.5-1.2-1.2-1.2h-1.8c-0.7,0-1.2,0.5-1.2,1.2v127.6v3c0,0.7,0.5,1.2,1.2,1.2h3h205
	c0.7,0,1.2-0.5,1.2-1.2v-1.8c0-0.7-0.5-1.2-1.2-1.2H189.3C188.7,778.8,188.2,778.2,188.2,777.5z"/>
<line class="st17" x1="314.2" y1="716.4" x2="349.1" y2="684.5"/>
<polyline class="st17" points="202.5,761.2 249.9,723.9 269.8,731.8 296.4,708.3 314.2,716.4 "/>
<polyline class="st6" points="349.1,684.5 314.2,716.4 296.4,708.3 269.8,731.8 249.9,723.9 202.5,761.2 "/>
<g>
	<g>
		<path class="st7" d="M361.1,668.2c-2.8,0-5.2,2.3-5.2,5.2v0.5c0,0.2,0.2,0.5,0.5,0.5h2.1c0.2,0,0.5-0.2,0.5-0.5v-0.5
			c0-1.2,0.9-2.1,2.1-2.1s2.1,0.9,2.1,2.1c0,1.2-0.9,2.1-2.1,2.1s-2.1,0.9-2.1,2.1v2.6c0,0.2,0.2,0.5,0.5,0.5h2.1
			c0.2,0,0.5-0.2,0.5-0.5v-1.7c2.4-0.5,4.1-2.6,4.1-5.1C366.3,670.5,363.9,668.2,361.1,668.2z M361.5,677.4c-0.2,0-0.4,0.2-0.4,0.5
			v1.6h-1v-2.1c0-0.6,0.5-1,1-1c1.7,0,3.1-1.4,3.1-3.1c0-1.7-1.4-3.1-3.1-3.1c-1.7,0-3.1,1.4-3.1,3.1h-1c0-2.2,1.8-4.1,4.1-4.1
			c2.2,0,4.1,1.8,4.1,4.1C365.2,675.4,363.6,677.2,361.5,677.4z"/>
		<path class="st7" d="M360.6,681.6c-0.8,0-1.6,0.7-1.6,1.6c0,0.8,0.7,1.6,1.6,1.6c0.9,0,1.6-0.7,1.6-1.6
			C362.1,682.2,361.4,681.6,360.6,681.6z M360.6,683.6c-0.2,0-0.5-0.2-0.5-0.5c0-0.2,0.2-0.5,0.5-0.5c0.2,0,0.5,0.2,0.5,0.5
			C361.1,683.4,360.9,683.6,360.6,683.6z"/>
	</g>
	<circle class="st8" cx="361" cy="676.3" r="12.4"/>
	<circle class="st9" cx="361" cy="676.3" r="12.4"/>
	<path class="st10" d="M380.8,696.4L370.3,686c-0.2-0.2-0.2-0.3,0-0.5l0.6-0.6c0.2-0.2,0.3-0.2,0.5,0l10.5,10.5
		c0.2,0.2,0.2,0.3,0,0.5l-0.6,0.6C381.2,696.5,381,696.5,380.8,696.4z"/>
</g>
<rect x="492.1" y="277.6" class="st18" width="313.9" height="42.4"/>
<text transform="matrix(1 0 0 1 492.1138 303.8745)" class="st19 st20">Heutiger Verbrauch:</text>
<rect x="851.1" y="226.1" class="st18" width="148.9" height="97.9"/>
<text transform="matrix(1 0 0 1 851.0977 252.376)"><tspan x="0" y="0" class="st19 st20">Küche:</tspan><tspan x="0" y="44.4" class="st19 st20">0,8 kW</tspan></text>
<rect x="1014.1" y="226.1" class="st18" width="235.9" height="97.9"/>
<text transform="matrix(1 0 0 1 1014.0977 252.376)"><tspan x="0" y="0" class="st19 st20">Wohnzimmer: </tspan><tspan x="0" y="44.4" class="st19 st20">500 W</tspan></text>
<rect x="1278.1" y="226.1" class="st18" width="235.9" height="97.9"/>
<text transform="matrix(1 0 0 1 1278.0977 252.376)"><tspan x="0" y="0" class="st19 st20">Schlafzimmer:</tspan><tspan x="0" y="44.4" class="st19 st20">120 W</tspan></text>
<rect x="1538.1" y="226.1" class="st18" width="148.9" height="97.9"/>
<text transform="matrix(1 0 0 1 1538.0977 252.376)"><tspan x="0" y="0" class="st19 st20">Bad:</tspan><tspan x="0" y="44.4" class="st19 st20">320 W</tspan></text>
<rect x="494.1" y="698.6" class="st18" width="313.9" height="42.4"/>
<text transform="matrix(1 0 0 1 494.1138 724.8745)" class="st19 st20">Vorhersage:</text>
<rect x="851.1" y="647.1" class="st18" width="148.9" height="97.9"/>
<text transform="matrix(1 0 0 1 851.0977 673.376)"><tspan x="0" y="0" class="st19 st20">Küche:</tspan><tspan x="0" y="44.4" class="st19 st20">1,4 kW</tspan></text>
<rect x="1014.1" y="647.1" class="st18" width="235.9" height="97.9"/>
<text transform="matrix(1 0 0 1 1014.0977 673.376)"><tspan x="0" y="0" class="st19 st20">Wohnzimmer:</tspan><tspan x="0" y="44.4" class="st19 st20">1,5 kW</tspan></text>
<rect x="1278.1" y="647.1" class="st18" width="235.9" height="97.9"/>
<text transform="matrix(1 0 0 1 1278.0977 673.376)"><tspan x="0" y="0" class="st19 st20">Schlafzimmer:</tspan><tspan x="0" y="44.4" class="st19 st20">200 W</tspan></text>
<rect x="1538.1" y="647.1" class="st18" width="148.9" height="97.9"/>
<text transform="matrix(1 0 0 1 1538.0977 673.376)"><tspan x="0" y="0" class="st19 st20">Bad:</tspan><tspan x="0" y="44.4" class="st19 st20">380 W</tspan></text>
<rect x="494.1" y="492.6" class="st18" width="398.9" height="42.4"/>
<text transform="matrix(1 0 0 1 494.1138 518.8745)" class="st19 st20">Jetzt / Gestern:</text>
<rect x="853.1" y="441.1" class="st18" width="148.9" height="97.9"/>
<text transform="matrix(1 0 0 1 853.0977 467.376)"><tspan x="0" y="0" class="st19 st20">Küche:</tspan><tspan x="0" y="44.4" class="st19 st20">- 200 W</tspan></text>
<rect x="1016.1" y="441.1" class="st18" width="235.9" height="97.9"/>
<text transform="matrix(1 0 0 1 1016.0977 467.376)"><tspan x="0" y="0" class="st19 st20">Wohnzimmer:</tspan><tspan x="0" y="44.4" class="st19 st20">+180 W</tspan></text>
<rect x="1280.1" y="441.1" class="st18" width="235.9" height="97.9"/>
<text transform="matrix(1 0 0 1 1280.0977 467.376)"><tspan x="0" y="0" class="st19 st20">Schlafzimmer:</tspan><tspan x="0" y="44.4" class="st19 st20"> +- 0 W</tspan></text>
<rect x="1540.1" y="441.1" class="st18" width="148.9" height="97.9"/>
<text transform="matrix(1 0 0 1 1540.0977 467.376)"><tspan x="0" y="0" class="st19 st20">Bad:</tspan><tspan x="0" y="44.4" class="st19 st20">-60 W</tspan></text>
<path class="st16" d="M188.2,564.6V438.2c0-0.7-0.5-1.2-1.2-1.2h-1.8c-0.7,0-1.2,0.5-1.2,1.2v127.7v3c0,0.7,0.5,1.2,1.2,1.2h3h205.2
	c0.7,0,1.2-0.5,1.2-1.2V567c0-0.7-0.5-1.2-1.2-1.2h-204C188.7,565.9,188.2,565.3,188.2,564.6z"/>
<polyline class="st21" points="350.5,492.5 320.5,476.5 272.5,534.5 256.5,519.5 237.5,499.5 198.5,557.5 "/>
<polyline class="st22" points="198.5,557.5 233.5,527.5 258.5,492.5 277.5,511.5 327.5,492.5 350.5,508.5 "/>
</svg>
