<?xml version="1.0" encoding="iso-8859-1"?>
<!-- Generator: Adobe Illustrator 19.0.0, SVG Export Plug-In . SVG Version: 6.00 Build 0)  -->
<svg version="1.1" id="Capa_1" xmlns="http://www.w3.org/2000/svg" xmlns:xlink="http://www.w3.org/1999/xlink" x="0px" y="0px"
	 viewBox="0 0 512 512" style="enable-background:new 0 0 512 512;" xml:space="preserve">
<g>
	<g>
		<path d="M256,0C115.031,0,0,115.05,0,256c0,45.756,12.379,90.551,35.869,130.02L0.758,492.294
			c-1.787,5.408-0.356,11.363,3.693,15.369c4.045,4.002,10.011,5.375,15.407,3.529l105.201-36.007
			C165.462,499.293,210.578,512,256,512c140.97,0,256-115.049,256-256C512,115.03,396.951,0,256,0z M256,482
			c-42.064,0-83.934-12.438-121.083-35.969c-3.789-2.4-8.522-3.013-12.884-1.52l-83.315,28.516l27.822-84.212
			c1.409-4.265,0.833-8.938-1.571-12.732C42.092,339.967,30,298.443,30,256C30,131.383,131.384,30,256,30s226,101.383,226,226
			S380.617,482,256,482z"/>
	</g>
</g>
<g>
	<g>
		<path d="M254.624,61C197.486,61,151,107.485,151,164.623c0,24.813,20.187,45,45,45s45-20.187,45-45
			c0-7.512,6.111-13.623,13.623-13.623c9.03,0,16.377,7.347,16.377,16.377v3.193c0,4.374-1.706,8.493-4.791,11.586l-33.237,33.237
			C218.804,229.562,211,248.395,211,268.422V286c0,24.813,20.187,45,45,45s45-20.187,45-45v-11.365l28.844-28.844
			C349.936,225.7,361,198.986,361,170.57C361,104.447,310.126,61,254.624,61z M308.631,224.578l-33.237,33.237
			c-2.813,2.813-4.394,6.628-4.394,10.607V286c0,8.271-6.729,15-15,15s-15-6.729-15-15v-17.578c0-12.014,4.683-23.313,13.185-31.815
			l33.25-33.25c8.748-8.77,13.565-20.413,13.565-32.787v-3.193C301,141.805,280.196,121,254.624,121
			C230.57,121,211,140.569,211,164.623c0,8.271-6.729,15-15,15s-15-6.729-15-15C181,124.027,214.028,91,254.624,91
			c39,0,76.376,30.026,76.376,79.57C331,190.972,323.056,210.153,308.631,224.578z"/>
	</g>
</g>
<g>
	<g>
		<path d="M256,361c-24.813,0-45,20.187-45,45s20.187,45,45,45s45-20.187,45-45S280.813,361,256,361z M256,421
			c-8.271,0-15-6.729-15-15s6.729-15,15-15s15,6.729,15,15S264.271,421,256,421z"/>
	</g>
</g>
<g>
</g>
<g>
</g>
<g>
</g>
<g>
</g>
<g>
</g>
<g>
</g>
<g>
</g>
<g>
</g>
<g>
</g>
<g>
</g>
<g>
</g>
<g>
</g>
<g>
</g>
<g>
</g>
<g>
</g>
</svg>
