<?xml version="1.0" encoding="utf-8"?>
<!-- Generator: Adobe Illustrator 22.1.0, SVG Export Plug-In . SVG Version: 6.00 Build 0)  -->
<svg version="1.1" id="Ebene_1" xmlns="http://www.w3.org/2000/svg" xmlns:xlink="http://www.w3.org/1999/xlink" x="0px" y="0px"
	 viewBox="0 0 512 512" style="enable-background:new 0 0 512 512;" xml:space="preserve">
<style type="text/css">
	.st0{fill:#FFFFFF;stroke:#000000;stroke-width:2;stroke-miterlimit:10;}
	.st1{fill:none;stroke:#000000;stroke-width:5;stroke-linecap:round;stroke-miterlimit:10;}
	.st2{fill:none;stroke:#FFFFFF;stroke-width:2;stroke-miterlimit:10;}
</style>
<path class="st0" d="M50,236.3V84.2c0-0.8-0.6-1.4-1.4-1.4h-2.2c-0.8,0-1.4,0.6-1.4,1.4v153.6v3.6c0,0.8,0.6,1.4,1.4,1.4H50h246.8
	c0.8,0,1.4-0.6,1.4-1.4v-2.2c0-0.8-0.6-1.4-1.4-1.4H51.4C50.6,237.8,50,237.1,50,236.3z"/>
<line class="st1" x1="201.7" y1="162.7" x2="243.7" y2="124.3"/>
<polyline class="st1" points="67.3,216.7 124.3,171.7 148.3,181.3 180.3,153 201.7,162.7 "/>
<polyline class="st2" points="243.7,124.3 201.7,162.7 180.3,153 148.3,181.3 124.3,171.7 67.3,216.7 "/>
</svg>
