<?xml version="1.0" encoding="utf-8"?>
<!-- Generator: Adobe Illustrator 22.1.0, SVG Export Plug-In . SVG Version: 6.00 Build 0)  -->
<svg version="1.1" id="Ebene_1" xmlns="http://www.w3.org/2000/svg" xmlns:xlink="http://www.w3.org/1999/xlink" x="0px" y="0px"
	 viewBox="0 0 512 512" style="enable-background:new 0 0 512 512;" xml:space="preserve">
<style type="text/css">
	.st0{fill:#FFFFFF;stroke:#000000;stroke-width:2;stroke-miterlimit:10;}
	.st1{fill:none;stroke:#000000;stroke-width:5;stroke-linecap:round;stroke-miterlimit:10;}
	.st2{fill:none;stroke:#FFFFFF;stroke-width:2;stroke-miterlimit:10;}
	.st3{fill:#020203;}
	.st4{fill:none;stroke:#000000;stroke-width:3;stroke-miterlimit:10;}
	.st5{fill:none;stroke:#FFFFFF;stroke-miterlimit:10;}
	.st6{fill:none;stroke:#000000;stroke-linecap:round;stroke-miterlimit:10;}
</style>
<path class="st0" d="M50,236.3V84.2c0-0.8-0.6-1.4-1.4-1.4h-2.2c-0.8,0-1.4,0.6-1.4,1.4v153.6v3.6c0,0.8,0.6,1.4,1.4,1.4H50h246.8
	c0.8,0,1.4-0.6,1.4-1.4v-2.2c0-0.8-0.6-1.4-1.4-1.4H51.4C50.6,237.8,50,237.1,50,236.3z"/>
<line class="st1" x1="201.7" y1="162.7" x2="243.7" y2="124.3"/>
<polyline class="st1" points="67.3,216.7 124.3,171.7 148.3,181.3 180.3,153 201.7,162.7 "/>
<polyline class="st2" points="243.7,124.3 201.7,162.7 180.3,153 148.3,181.3 124.3,171.7 67.3,216.7 "/>
<g>
	<g>
		<path class="st3" d="M258.2,104.7c-3.4,0-6.2,2.8-6.2,6.2v0.6c0,0.3,0.3,0.6,0.6,0.6h2.5c0.3,0,0.6-0.3,0.6-0.6v-0.6
			c0-1.4,1.1-2.5,2.5-2.5c1.4,0,2.5,1.1,2.5,2.5c0,1.4-1.1,2.5-2.5,2.5c-1.4,0-2.5,1.1-2.5,2.5v3.1c0,0.3,0.3,0.6,0.6,0.6h2.5
			c0.3,0,0.6-0.3,0.6-0.6v-2c2.9-0.6,4.9-3.1,4.9-6.1C264.4,107.5,261.6,104.7,258.2,104.7z M258.7,115.8c-0.3,0-0.5,0.3-0.5,0.6
			v1.9h-1.2v-2.5c0-0.7,0.6-1.2,1.2-1.2c2,0,3.7-1.7,3.7-3.7c0-2-1.7-3.7-3.7-3.7s-3.7,1.7-3.7,3.7h-1.2c0-2.7,2.2-4.9,4.9-4.9
			c2.7,0,4.9,2.2,4.9,4.9C263.1,113.4,261.2,115.6,258.7,115.8z"/>
		<path class="st3" d="M257.6,120.8c-1,0-1.9,0.8-1.9,1.9c0,1,0.8,1.9,1.9,1.9s1.9-0.8,1.9-1.9C259.4,121.6,258.6,120.8,257.6,120.8
			z M257.6,123.3c-0.3,0-0.6-0.3-0.6-0.6s0.3-0.6,0.6-0.6c0.3,0,0.6,0.3,0.6,0.6C258.2,123,257.9,123.3,257.6,123.3z"/>
	</g>
	<circle class="st4" cx="258" cy="114.4" r="14.9"/>
	<circle class="st5" cx="258" cy="114.4" r="14.9"/>
	<path class="st6" d="M281.9,138.7l-12.6-12.6c-0.2-0.2-0.2-0.4,0-0.6l0.7-0.7c0.2-0.2,0.4-0.2,0.6,0l12.6,12.6
		c0.2,0.2,0.2,0.4,0,0.6l-0.7,0.7C282.4,138.8,282.1,138.8,281.9,138.7z"/>
</g>
</svg>
